/* XPM */
static char *PoutineLaFourmi60[] = {
/* columns rows colors chars-per-pixel */
"60 60 197 2 ",
"   c None",
".  c #422A10",
"X  c #4D3316",
"o  c #513516",
"O  c #5C3D1A",
"+  c #55381B",
"@  c #593E22",
"#  c #553A20",
"$  c #63411C",
"%  c #69461D",
"&  c #734D1F",
"*  c #5E4225",
"=  c #634525",
"-  c #6C4724",
";  c #6C4A25",
":  c #614429",
">  c #6D4B29",
",  c #6C4628",
"<  c #734E23",
"1  c #734C2B",
"2  c #784F2C",
"3  c #765025",
"4  c #7B5324",
"5  c #74512B",
"6  c #7A542D",
"7  c #7F592F",
"8  c #6E413B",
"9  c #755430",
"0  c #7D5531",
"q  c #7D5933",
"w  c #5F4A40",
"e  c #7B4D44",
"r  c #7A4F48",
"t  c #7F4642",
"y  c #6B5348",
"u  c #665247",
"i  c #735953",
"p  c #78675F",
"a  c #855B25",
"s  c #885D24",
"d  c #80572A",
"f  c #835B2B",
"g  c #885D2B",
"h  c #805726",
"j  c #805731",
"k  c #845C34",
"l  c #845E39",
"z  c #895E38",
"x  c #8E6126",
"c  c #8C612E",
"v  c #876136",
"b  c #8C6334",
"n  c #85623C",
"m  c #8B643B",
"M  c #8E683D",
"N  c #936633",
"B  c #946A37",
"V  c #9A6A34",
"C  c #936B3D",
"Z  c #9A6D3B",
"A  c #926739",
"S  c #9E713B",
"D  c #A5753C",
"F  c #AC793C",
"G  c #AA773A",
"H  c #894B49",
"J  c #83564A",
"K  c #8D5B4E",
"L  c #86564B",
"P  c #93594C",
"I  c #97584C",
"U  c #8B5A57",
"Y  c #955951",
"T  c #985D54",
"R  c #A35E50",
"E  c #8D6640",
"W  c #8E6A42",
"Q  c #946D44",
"!  c #936A44",
"~  c #977047",
"^  c #9D7243",
"/  c #96724B",
"(  c #99734A",
")  c #866355",
"_  c #9D6255",
"`  c #9A6A5B",
"'  c #9F7953",
"]  c #9E7752",
"[  c #A47543",
"{  c #AD7D4E",
"}  c #B37F41",
"|  c #AA6453",
" . c #A96956",
".. c #B26A5E",
"X. c #A47B5C",
"o. c #AC785F",
"O. c #B1745C",
"+. c #B5735B",
"@. c #986F62",
"#. c #8F7467",
"$. c #9D7A6D",
"%. c #987566",
"&. c #9C7A71",
"*. c #AB6B6A",
"=. c #AC7263",
"-. c #AC7D68",
";. c #A5786B",
":. c #B27A63",
">. c #B47B6A",
",. c #BA7567",
"<. c #BF7570",
"1. c #C17F6C",
"2. c #B68144",
"3. c #A4815D",
"4. c #AE8358",
"5. c #B28457",
"6. c #928078",
"7. c #AB8566",
"8. c #BD8265",
"9. c #B58B62",
"0. c #BA916A",
"q. c #A98477",
"w. c #B18573",
"e. c #B58C7D",
"r. c #BD8977",
"t. c #B79878",
"y. c #B39574",
"u. c #C68364",
"i. c #C98864",
"p. c #C9896D",
"a. c #CB8575",
"s. c #CB8B74",
"d. c #C88E7F",
"f. c #C2877E",
"g. c #D28A7D",
"h. c #C1917A",
"j. c #CB907D",
"k. c #DE9A7A",
"l. c #D89673",
"z. c #9F7D80",
"x. c #C87C82",
"c. c #9E8C87",
"v. c #AA948C",
"b. c #B5968E",
"n. c #B79881",
"m. c #AF9995",
"M. c #B19B96",
"N. c #BDA183",
"B. c #ADA09C",
"V. c #AEA7A5",
"C. c #B5AFAF",
"Z. c #BAAAA6",
"A. c #D68E89",
"S. c #C79688",
"D. c #DE9F8B",
"F. c #D69885",
"G. c #CE9F95",
"H. c #DA9E9A",
"J. c #E09C83",
"K. c #E79F95",
"L. c #CBAA8B",
"P. c #D9A18B",
"I. c #C9A896",
"U. c #DFA495",
"Y. c #DFA893",
"T. c #E4A385",
"R. c #EAA98A",
"E. c #F3AD8D",
"W. c #E2A492",
"Q. c #EAAB95",
"!. c #E4A69A",
"~. c #E4AD9B",
"^. c #ECAC9A",
"/. c #E8A695",
"(. c #F1AE99",
"). c #EBB29D",
"_. c #F5B095",
"`. c #F4B29D",
"'. c #DCB8AB",
"]. c #E7AAA1",
"[. c #F4AEA7",
"{. c #ECB3A3",
"}. c #E9B7AB",
"|. c #F2B5A1",
" X c #F4B5AA",
".X c #F8B4AB",
"XX c #F3B9AC",
"oX c #FABAAB",
"OX c #F5B8A5",
"+X c #ECB5B6",
"@X c #F5B9B2",
"#X c #FABBB4",
"$X c #FDBFB8",
"%X c #F3C1B7",
"&X c #F9C1B3",
"*X c #FCC4BB",
"=X c #F9C4C3",
/* pixels */
"                                        x                                     x                                         ",
"                                        x                                     x                                         ",
"                                        s                                     s                                         ",
"                                                    u i ) #.7.$.#.            s                                         ",
"                                                  y ) ` -.r.t.h.w.)           s                                         ",
"                                                8 ) { i.s.l.T.R.R.F.%.y       s                                         ",
"                                              p #.o.i.l.k.R.E.E._._.P.#.                                                ",
"                                              6.e.O.i.k.k.E._.OXoXXX(.n.B.                                              ",
"                                      s     V.v.e.O.i.T.Q.|.oX*X*X&XOXI.V.                                              ",
"                                            C.v.w.O.u.T.(.|.oX*X*X&X).'.Z.      s                                       ",
"                                            V.v.w.O.u.k.(.`.oX*X=X&X{.}.Z.                                              ",
"                                            c.M.b.:.8.s.Q.`..XXX@X%X{.~.I.I.                                            ",
"                                            &.M.&.U e t ..F.s. .;.S.H.~.I.!.      s                                     ",
"                                            @.b.` e i U K D.F.*.z.H.}.{.W.~.                                            ",
"                                          j 7.b.>.>.S.n._ D.@X].+X=X=X{.XXh.6                                           ",
"                                      ; q   -.q...a.D.h.| K.$X@X#X*XXXU.|.  j b q                                       ",
"                                  O : 5       &.P ..a.1.| !.#X.X.X.X/.D.XX      C C b                                   ",
"                                  :             K R +...T W..X^.|..X~.D.            ^                                   ",
"                                                J P | ..Y *.H..X.X.X~.W.                                                ",
"                                                J K T _ *.S.H.].!.|.~.Y.                                                ",
"                                                  K H H H *.x.A.a.W.W.                                                  ",
"                                                  J H I R 1.A.K./.T.          2.                                        ",
"                                                    8 P ,.g.K.K.j.                                                      ",
"                                            j         z X.:. .I :         q                                             ",
"                                            b       < ^ L.0.N 4 +         v                                             ",
"                                            6 7     3 Z 0.5.N h $ .     5                                               ",
"                                              :     3 c S [ V 4 +       ;                                               ",
"                                              * :   % s Z 5.[ 4 X     :                                                 ",
"                                                : @ $ < N 9.[ 1 X   : *                                                 ",
"                          : : 5 5               1 < < < d { Z - o $ ;                 j m M                             ",
"                              > 5 f j 9         j c ; f f Z N 3 O < f         # : > 7 f                                 ",
"                                          : *     S 6 $ h g s < $ b j     * *                                           ",
"                                            * *     m $ < 4 & $ - C     : :                                             ",
"                                            5 =       O < b h $       > ;                                               ",
"                                              f 6       N 9.N $       f 7                                               ",
"                                              b N       Z { N %     j c q                                               ",
"                                                S B   % b V g $     B b                                                 ",
"                                                  C b < C 5.s O ; S C                                                   ",
"                                                      3 B { g $ 3                                                       ",
"                                  : ; 5 f f             3 1 : o           6 < = * * *                                   ",
"                                        5 f b B M     $ : : : + O     b c f 5 >     @                                   ",
"                                *             N S [ j 1 2 5 1 > - v D Z f           @                                   ",
"                                >                 b f j z z q q 6 0 !               :                                   ",
"                                5                   j C ! C B v j 6                 1                                   ",
"                                q                 0 M 7.y.3.B n z j 5               5 6                                 ",
"                                b                 j ~ N.Z.3.C n m j 0               5 5                                 ",
"                                b               ; v ~ t.N.3.W n n l j               v m                                 ",
"                                C j             1 v ~ 3.7./ E q 0 l j >             C C                                 ",
"                                ^ v             2 j m Q Q m 9 > 1 6 j 1             Q Q                                 ",
"                                C               0 E ~ ( ( ! n n n E z 1             M M                                 ",
"                                                0 z M 3.3.E : > 5 9 0 ,                                                 ",
"                                                5 j m ! / q 9 : > 0 0 >                                                 ",
"                                                1 j m ! E l q 9 0 j 0                                                   ",
"                                                  j m m E E q 0 q j 6                                                   ",
"                                                  0 j j n j j 0 q q 1                                                   ",
"                    2.                            1 j m E ! E M l 0                               F                     ",
"                  F                                 6 m X.] ! M j 1                                 G                   ",
"              F                                       2 j j 0 6 2                                       V               ",
"                                                      , 2 d 6 2                                                         ",
"                                                          1 1                                                           "
};
